<?xml version="1.0" encoding="UTF-8"?>
<!-- Generated by Pixelmator Pro 3.7.1 -->
<svg width="800" height="900" viewBox="0 0 800 900" xmlns="http://www.w3.org/2000/svg">
    <g id="Group-copy">
        <path id="Path-copy" fill="#ffef70" fill-rule="evenodd" stroke="none" d="M 400 300 L 200 200 L 400 100 L 600 200 L 400 300 Z"/>
        <path id="Path-copy-15" fill="#ffef70" fill-rule="evenodd" stroke="none" d="M 200 200 L 0 100 L 200 0 L 400 100 L 200 200 Z"/>
        <path id="Path-copy-16" fill="#ffef70" fill-rule="evenodd" stroke="none" d="M 600 200 L 400 100 L 600 0 L 800 100 L 600 200 Z"/>
        <path id="Path-copy-2" fill="#f7c785" fill-rule="evenodd" stroke="none" d="M 200 800 L 400 900 L 400 700 L 200 600 L 200 800 Z"/>
        <path id="Path-copy-3" fill="#f7c785" fill-rule="evenodd" stroke="none" d="M 200 600 L 400 700 L 400 500 L 200 400 L 200 600 Z"/>
        <path id="Path-copy-9" fill="#f7c785" fill-rule="evenodd" stroke="none" d="M 200 400 L 400 500 L 400 300 L 200 200 L 200 400 Z"/>
        <path id="Path-copy-10" fill="#f7c785" fill-rule="evenodd" stroke="none" d="M 0 300 L 200 400 L 200 200 L 0 100 L 0 300 Z"/>
        <path id="Path-copy-5" fill="#ff9400" fill-rule="evenodd" stroke="none" d="M 600 800 L 400 900 L 400 700 L 600 600 L 600 800 Z"/>
        <path id="Path-copy-6" fill="#ff9400" fill-rule="evenodd" stroke="none" d="M 600 600 L 400 700 L 400 500 L 600 400 L 600 600 Z"/>
        <path id="Path-copy-7" fill="#ff9400" fill-rule="evenodd" stroke="none" d="M 600 400 L 400 500 L 400 300 L 600 200 L 600 400 Z"/>
        <path id="Path-copy-8" fill="#ff9400" fill-rule="evenodd" stroke="none" d="M 800 300 L 600 400 L 600 200 L 800 100 L 800 300 Z"/>
    </g>
</svg>
